<svg id="Capa_1" enable-background="new 0 0 512.001 512.001" height="512" viewBox="0 0 512.001 512.001" width="512" xmlns="http://www.w3.org/2000/svg" xmlns:xlink="http://www.w3.org/1999/xlink"><linearGradient id="SVGID_1_" gradientUnits="userSpaceOnUse" x1="256.001" x2="256.001" y1="512.001" y2="0"><stop offset="0" stop-color="#fd3a84"/><stop offset="1" stop-color="#ffa68d"/></linearGradient><g><g><path d="m467.001 60.001h-16v-45c0-6.067-3.655-11.536-9.26-13.858-5.607-2.323-12.058-1.038-16.347 3.251l-55.607 55.607h-83.787c-24.813 0-45 20.187-45 45v16h-196c-24.813 0-45 20.187-45 45v241c0 24.813 20.187 45 45 45h15v45c0 8.306 6.748 15 14.997 15 3.904 0 7.741-1.524 10.61-4.394l55.607-55.606h204.787c24.813 0 45-20.187 45-45v-136h76c24.813 0 45-20.187 45-45v-121c0-24.813-20.187-45-45-45zm-106 347c0 8.271-6.729 15-15 15h-211c-3.978 0-7.793 1.581-10.606 4.394l-34.394 34.393v-23.787c0-8.284-6.716-15-15-15h-30c-8.271 0-15-6.729-15-15v-241c0-8.271 6.729-15 15-15h301c8.271 0 15 6.729 15 15zm121-181c0 8.271-6.729 15-15 15h-76v-75c0-24.813-20.187-45-45-45h-75v-16c0-8.271 6.729-15 15-15h90c3.978 0 7.793-1.58 10.606-4.393l34.394-34.394v23.787c0 8.284 6.716 15 15 15h31c8.271 0 15 6.729 15 15zm-157.23-12.169c-3.911-2.819-8.938-3.586-13.514-2.062l-70.256 23.419v-9.188c0-8.284-6.716-15-15-15h-151c-8.284 0-15 6.716-15 15v120c0 8.284 6.716 15 15 15h151c8.284 0 15-6.716 15-15v-9.188l70.256 23.419c4.515 1.504 9.552.794 13.514-2.062 3.912-2.819 6.229-7.347 6.229-12.168v-120c.001-4.823-2.317-9.351-6.229-12.17zm-113.77 117.169h-121v-90h121zm90-5.812-60-20v-38.377l60-20z" fill="url(#SVGID_1_)"/></g></g></svg>